<svg width="512" height="512" viewBox="0 0 512 512" fill="none" xmlns="http://www.w3.org/2000/svg">
  <defs>
    <linearGradient id="grad1" x1="0%" y1="0%" x2="100%" y2="100%">
      <stop offset="0%" style="stop-color:#6366f1;stop-opacity:1" />
      <stop offset="100%" style="stop-color:#a855f7;stop-opacity:1" />
    </linearGradient>
    <linearGradient id="grad2" x1="0%" y1="0%" x2="100%" y2="0%">
      <stop offset="0%" style="stop-color:#fbbf24;stop-opacity:1" />
      <stop offset="100%" style="stop-color:#f59e0b;stop-opacity:1" />
    </linearGradient>
    <filter id="glass" x="-20%" y="-20%" width="140%" height="140%">
      <feGaussianBlur in="SourceGraphic" stdDeviation="5" result="blur" />
      <feColorMatrix in="blur" mode="matrix" values="1 0 0 0 0  0 1 0 0 0  0 0 1 0 0  0 0 0 19 -9" result="goo" />
    </filter>
  </defs>
  
  <!-- Outer Ring/Coin Edge -->
  <circle cx="256" cy="256" r="240" stroke="url(#grad1)" stroke-width="20" fill="#1e1b4b" fill-opacity="0.9" />
  
  <!-- Inner Glow -->
  <circle cx="256" cy="256" r="200" fill="url(#grad1)" fill-opacity="0.2" />

  <!-- Chat Bubble Shape -->
  <path d="M150 150 H362 A60 60 0 0 1 422 210 V300 A60 60 0 0 1 362 360 H230 L150 420 V360 A10 10 0 0 1 150 360 A60 60 0 0 1 90 300 V210 A60 60 0 0 1 150 150 Z" 
        fill="url(#grad2)" stroke="white" stroke-width="4" stroke-opacity="0.5"/>
        
  <!-- "P" or Currency Symbol hint inside -->
  <text x="256" y="290" font-family="Arial, sans-serif" font-size="200" font-weight="bold" fill="white" text-anchor="middle" dominant-baseline="middle">P</text>
  
  <!-- Circuit Nodes decoration -->
  <circle cx="422" cy="210" r="10" fill="white" />
  <circle cx="90" cy="300" r="10" fill="white" />
  <circle cx="230" cy="360" r="10" fill="white" />
</svg>
